<?xml version="1.0" encoding="UTF-8" standalone="no"?><!DOCTYPE svg PUBLIC "-//W3C//DTD SVG 1.1//EN" "http://www.w3.org/Graphics/SVG/1.1/DTD/svg11.dtd"><!-- Generated by graphviz version 2.40.1 (20161225.0304)
 --><!-- Title: %0 Pages: 1 --><svg xmlns="http://www.w3.org/2000/svg" xmlns:xlink="http://www.w3.org/1999/xlink" width="1072pt" height="615pt" viewBox="0.00 0.00 1072.04 614.63">
<g id="graph0" class="graph" transform="scale(1 1) rotate(0) translate(4 610.631)">
<title>%0</title>
<polygon fill="#ffffff" stroke="transparent" points="-4,4 -4,-610.631 1068.0381,-610.631 1068.0381,4 -4,4"/>
<!-- GlobalCCDFilter -->
<g id="node1" class="node">
<title>GlobalCCDFilter</title>
<ellipse fill="none" stroke="#000000" cx="661.8769" cy="-588.631" rx="78.183" ry="18"/>
<text text-anchor="middle" x="661.8769" y="-584.431" font-family="Times,serif" font-size="14.00" fill="#000000">GlobalCCDFilter</text>
</g>
<!-- LBVHSimplexCCDFilter -->
<g id="node2" class="node">
<title>LBVHSimplexCCDFilter</title>
<ellipse fill="none" stroke="#000000" cx="368.9103" cy="-527.631" rx="110.0661" ry="18"/>
<text text-anchor="middle" x="368.9103" y="-523.431" font-family="Times,serif" font-size="14.00" fill="#000000">LBVHSimplexCCDFilter</text>
</g>
<!-- LBVHSimplexCCDFilter&#45;&gt;GlobalCCDFilter -->
<g id="edge4" class="edge">
<title>LBVHSimplexCCDFilter-&gt;GlobalCCDFilter</title>
<path fill="none" stroke="#000000" d="M437.2282,-541.8558C484.4262,-551.6832 546.9354,-564.6985 594.0308,-574.5045"/>
<polygon fill="#000000" stroke="#000000" points="593.332,-577.934 603.8355,-576.546 594.7589,-571.0809 593.332,-577.934"/>
</g>
<!-- GlobalVertexManager -->
<g id="node3" class="node">
<title>GlobalVertexManager</title>
<ellipse fill="none" stroke="#000000" cx="950.0267" cy="-404.631" rx="97.8131" ry="18"/>
<text text-anchor="middle" x="950.0267" y="-400.431" font-family="Times,serif" font-size="14.00" fill="#000000">GlobalVertexManager</text>
</g>
<!-- LBVHSimplexCCDFilter&#45;&gt;GlobalVertexManager -->
<g id="edge1" class="edge">
<title>LBVHSimplexCCDFilter-&gt;GlobalVertexManager</title>
<path fill="none" stroke="#000000" d="M442.7294,-541.1159C530.6389,-554.0072 680.5851,-565.8714 800.0153,-523.631 852.7261,-504.9881 900.9255,-459.4779 927.7901,-430.4498"/>
<polygon fill="#000000" stroke="#000000" points="930.6613,-432.4938 934.7875,-422.7355 925.4765,-427.7908 930.6613,-432.4938"/>
</g>
<!-- GlobalSimpicialSurfaceManager -->
<g id="node4" class="node">
<title>GlobalSimpicialSurfaceManager</title>
<ellipse fill="none" stroke="#000000" cx="661.8769" cy="-350.631" rx="138.2768" ry="18"/>
<text text-anchor="middle" x="661.8769" y="-346.431" font-family="Times,serif" font-size="14.00" fill="#000000">GlobalSimpicialSurfaceManager</text>
</g>
<!-- LBVHSimplexCCDFilter&#45;&gt;GlobalSimpicialSurfaceManager -->
<g id="edge2" class="edge">
<title>LBVHSimplexCCDFilter-&gt;GlobalSimpicialSurfaceManager</title>
<path fill="none" stroke="#000000" d="M440.6213,-513.8762C457.8436,-507.6658 474.9363,-498.6658 487.7386,-485.631 523.1924,-449.5335 485.7345,-411.0329 523.7386,-377.631 528.9797,-373.0247 534.7703,-369.11 540.9225,-365.7899"/>
<polygon fill="#000000" stroke="#000000" points="542.6788,-368.829 550.1731,-361.34 539.6443,-362.5209 542.6788,-368.829"/>
</g>
<!-- GlobalContactManager -->
<g id="node5" class="node">
<title>GlobalContactManager</title>
<ellipse fill="none" stroke="#000000" cx="661.8769" cy="-404.631" rx="101.8457" ry="18"/>
<text text-anchor="middle" x="661.8769" y="-400.431" font-family="Times,serif" font-size="14.00" fill="#000000">GlobalContactManager</text>
</g>
<!-- LBVHSimplexCCDFilter&#45;&gt;GlobalContactManager -->
<g id="edge3" class="edge">
<title>LBVHSimplexCCDFilter-&gt;GlobalContactManager</title>
<path fill="none" stroke="#000000" d="M418.1595,-511.406C439.6977,-504.0074 465.1512,-494.8514 487.7386,-485.631 500.5087,-480.4182 569.5228,-448.1036 616.7378,-425.9002"/>
<polygon fill="#000000" stroke="#000000" points="618.3083,-429.0294 625.867,-421.6054 615.3284,-422.6953 618.3083,-429.0294"/>
</g>
<!-- GlobalSimpicialSurfaceManager&#45;&gt;GlobalVertexManager -->
<g id="edge27" class="edge">
<title>GlobalSimpicialSurfaceManager-&gt;GlobalVertexManager</title>
<path fill="none" stroke="#000000" d="M740.9962,-365.4582C781.6306,-373.0732 830.9834,-382.322 871.5284,-389.9203"/>
<polygon fill="#000000" stroke="#000000" points="870.8944,-393.3623 881.368,-391.7642 872.1838,-386.4821 870.8944,-393.3623"/>
</g>
<!-- GlobalContactManager&#45;&gt;GlobalVertexManager -->
<g id="edge18" class="edge">
<title>GlobalContactManager-&gt;GlobalVertexManager</title>
<path fill="none" stroke="#000000" d="M763.8733,-404.631C789.1711,-404.631 816.3662,-404.631 841.9442,-404.631"/>
<polygon fill="#000000" stroke="#000000" points="842.0365,-408.1311 852.0364,-404.631 842.0364,-401.1311 842.0365,-408.1311"/>
</g>
<!-- GlobalDCDFilter -->
<g id="node6" class="node">
<title>GlobalDCDFilter</title>
<ellipse fill="none" stroke="#000000" cx="661.8769" cy="-496.631" rx="78.7453" ry="18"/>
<text text-anchor="middle" x="661.8769" y="-492.431" font-family="Times,serif" font-size="14.00" fill="#000000">GlobalDCDFilter</text>
</g>
<!-- LBVHSimplexDCDFilter -->
<g id="node7" class="node">
<title>LBVHSimplexDCDFilter</title>
<ellipse fill="none" stroke="#000000" cx="368.9103" cy="-458.631" rx="110.6283" ry="18"/>
<text text-anchor="middle" x="368.9103" y="-454.431" font-family="Times,serif" font-size="14.00" fill="#000000">LBVHSimplexDCDFilter</text>
</g>
<!-- LBVHSimplexDCDFilter&#45;&gt;GlobalVertexManager -->
<g id="edge5" class="edge">
<title>LBVHSimplexDCDFilter-&gt;GlobalVertexManager</title>
<path fill="none" stroke="#000000" d="M478.1929,-455.2749C565.5293,-451.7535 690.9473,-444.8171 800.0153,-431.631 824.3815,-428.6852 850.7829,-424.3298 874.5464,-419.9729"/>
<polygon fill="#000000" stroke="#000000" points="875.365,-423.3807 884.5556,-418.1097 874.0839,-416.499 875.365,-423.3807"/>
</g>
<!-- LBVHSimplexDCDFilter&#45;&gt;GlobalSimpicialSurfaceManager -->
<g id="edge6" class="edge">
<title>LBVHSimplexDCDFilter-&gt;GlobalSimpicialSurfaceManager</title>
<path fill="none" stroke="#000000" d="M455.3022,-447.2461C466.8071,-443.4227 477.9815,-438.3509 487.7386,-431.631 511.4942,-415.2703 499.7371,-393.6288 523.7386,-377.631 530.7536,-372.9553 538.3867,-369.0495 546.3439,-365.7909"/>
<polygon fill="#000000" stroke="#000000" points="547.6712,-369.0314 555.8162,-362.2557 545.2236,-362.4733 547.6712,-369.0314"/>
</g>
<!-- LBVHSimplexDCDFilter&#45;&gt;GlobalContactManager -->
<g id="edge7" class="edge">
<title>LBVHSimplexDCDFilter-&gt;GlobalContactManager</title>
<path fill="none" stroke="#000000" d="M442.46,-445.0743C484.7597,-437.2775 537.9531,-427.4729 581.3708,-419.47"/>
<polygon fill="#000000" stroke="#000000" points="582.1293,-422.8893 591.3291,-417.6345 580.8603,-416.0053 582.1293,-422.8893"/>
</g>
<!-- LBVHSimplexDCDFilter&#45;&gt;GlobalDCDFilter -->
<g id="edge8" class="edge">
<title>LBVHSimplexDCDFilter-&gt;GlobalDCDFilter</title>
<path fill="none" stroke="#000000" d="M455.6209,-469.8781C495.9772,-475.1126 543.6394,-481.2947 582.9749,-486.3968"/>
<polygon fill="#000000" stroke="#000000" points="582.6804,-489.8879 593.0476,-487.7034 583.5809,-482.946 582.6804,-489.8879"/>
</g>
<!-- ABDLinearSubsystem -->
<g id="node8" class="node">
<title>ABDLinearSubsystem</title>
<ellipse fill="none" stroke="#000000" cx="368.9103" cy="-96.631" rx="98.4333" ry="18"/>
<text text-anchor="middle" x="368.9103" y="-92.431" font-family="Times,serif" font-size="14.00" fill="#000000">ABDLinearSubsystem</text>
</g>
<!-- AffineBodyDynamics -->
<g id="node9" class="node">
<title>AffineBodyDynamics</title>
<ellipse fill="none" stroke="#000000" cx="661.8769" cy="-198.631" rx="96.1305" ry="18"/>
<text text-anchor="middle" x="661.8769" y="-194.431" font-family="Times,serif" font-size="14.00" fill="#000000">AffineBodyDynamics</text>
</g>
<!-- ABDLinearSubsystem&#45;&gt;AffineBodyDynamics -->
<g id="edge9" class="edge">
<title>ABDLinearSubsystem-&gt;AffineBodyDynamics</title>
<path fill="none" stroke="#000000" d="M436.7372,-109.7884C453.5672,-113.6683 471.4459,-118.3211 487.7386,-123.631 533.5104,-138.5485 583.8181,-160.8994 618.5404,-177.3219"/>
<polygon fill="#000000" stroke="#000000" points="617.371,-180.6417 627.9039,-181.7855 620.3832,-174.3229 617.371,-180.6417"/>
</g>
<!-- GlobalLinearSystem -->
<g id="node10" class="node">
<title>GlobalLinearSystem</title>
<ellipse fill="none" stroke="#000000" cx="661.8769" cy="-42.631" rx="90.9071" ry="18"/>
<text text-anchor="middle" x="661.8769" y="-38.431" font-family="Times,serif" font-size="14.00" fill="#000000">GlobalLinearSystem</text>
</g>
<!-- ABDLinearSubsystem&#45;&gt;GlobalLinearSystem -->
<g id="edge10" class="edge">
<title>ABDLinearSubsystem-&gt;GlobalLinearSystem</title>
<path fill="none" stroke="#000000" d="M438.3393,-83.8338C482.3861,-75.715 539.4272,-65.2011 584.8636,-56.8263"/>
<polygon fill="#000000" stroke="#000000" points="585.763,-60.2195 594.9629,-54.9647 584.4941,-53.3355 585.763,-60.2195"/>
</g>
<!-- DoFPredictor -->
<g id="node13" class="node">
<title>DoFPredictor</title>
<ellipse fill="none" stroke="#000000" cx="950.0267" cy="-171.631" rx="63.7006" ry="18"/>
<text text-anchor="middle" x="950.0267" y="-167.431" font-family="Times,serif" font-size="14.00" fill="#000000">DoFPredictor</text>
</g>
<!-- AffineBodyDynamics&#45;&gt;DoFPredictor -->
<g id="edge13" class="edge">
<title>AffineBodyDynamics-&gt;DoFPredictor</title>
<path fill="none" stroke="#000000" d="M748.3314,-190.5302C790.1161,-186.6149 839.6426,-181.9742 879.1612,-178.2712"/>
<polygon fill="#000000" stroke="#000000" points="879.6123,-181.7444 889.2421,-177.3266 878.9592,-174.7749 879.6123,-181.7444"/>
</g>
<!-- GradientHessianComputer -->
<g id="node14" class="node">
<title>GradientHessianComputer</title>
<ellipse fill="none" stroke="#000000" cx="950.0267" cy="-225.631" rx="114.0228" ry="18"/>
<text text-anchor="middle" x="950.0267" y="-221.431" font-family="Times,serif" font-size="14.00" fill="#000000">GradientHessianComputer</text>
</g>
<!-- AffineBodyDynamics&#45;&gt;GradientHessianComputer -->
<g id="edge14" class="edge">
<title>AffineBodyDynamics-&gt;GradientHessianComputer</title>
<path fill="none" stroke="#000000" d="M748.3314,-206.7319C777.5976,-209.4742 810.6616,-212.5724 841.4249,-215.4549"/>
<polygon fill="#000000" stroke="#000000" points="841.4776,-218.9751 851.7606,-216.4234 842.1307,-212.0056 841.4776,-218.9751"/>
</g>
<!-- ABDLineSearchReporter -->
<g id="node11" class="node">
<title>ABDLineSearchReporter</title>
<ellipse fill="none" stroke="#000000" cx="368.9103" cy="-296.631" rx="109.3468" ry="18"/>
<text text-anchor="middle" x="368.9103" y="-292.431" font-family="Times,serif" font-size="14.00" fill="#000000">ABDLineSearchReporter</text>
</g>
<!-- ABDLineSearchReporter&#45;&gt;AffineBodyDynamics -->
<g id="edge12" class="edge">
<title>ABDLineSearchReporter-&gt;AffineBodyDynamics</title>
<path fill="none" stroke="#000000" d="M438.8532,-282.744C455.0411,-278.9778 472.101,-274.559 487.7386,-269.631 532.4256,-255.5485 581.734,-234.9432 616.4397,-219.5535"/>
<polygon fill="#000000" stroke="#000000" points="618.1224,-222.6352 625.8253,-215.3608 615.2673,-216.2439 618.1224,-222.6352"/>
</g>
<!-- LineSearcher -->
<g id="node12" class="node">
<title>LineSearcher</title>
<ellipse fill="none" stroke="#000000" cx="661.8769" cy="-296.631" rx="62.516" ry="18"/>
<text text-anchor="middle" x="661.8769" y="-292.431" font-family="Times,serif" font-size="14.00" fill="#000000">LineSearcher</text>
</g>
<!-- ABDLineSearchReporter&#45;&gt;LineSearcher -->
<g id="edge11" class="edge">
<title>ABDLineSearchReporter-&gt;LineSearcher</title>
<path fill="none" stroke="#000000" d="M478.4169,-296.631C515.3863,-296.631 555.7179,-296.631 589.1273,-296.631"/>
<polygon fill="#000000" stroke="#000000" points="589.2621,-300.1311 599.262,-296.631 589.262,-293.1311 589.2621,-300.1311"/>
</g>
<!-- ABDDiagPreconditioner -->
<g id="node15" class="node">
<title>ABDDiagPreconditioner</title>
<ellipse fill="none" stroke="#000000" cx="107.041" cy="-96.631" rx="107.0821" ry="18"/>
<text text-anchor="middle" x="107.041" y="-92.431" font-family="Times,serif" font-size="14.00" fill="#000000">ABDDiagPreconditioner</text>
</g>
<!-- ABDDiagPreconditioner&#45;&gt;ABDLinearSubsystem -->
<g id="edge16" class="edge">
<title>ABDDiagPreconditioner-&gt;ABDLinearSubsystem</title>
<path fill="none" stroke="#000000" d="M214.3089,-96.631C229.3429,-96.631 244.8076,-96.631 259.8741,-96.631"/>
<polygon fill="#000000" stroke="#000000" points="260.231,-100.1311 270.2309,-96.631 260.2309,-93.1311 260.231,-100.1311"/>
</g>
<!-- ABDDiagPreconditioner&#45;&gt;AffineBodyDynamics -->
<g id="edge17" class="edge">
<title>ABDDiagPreconditioner-&gt;AffineBodyDynamics</title>
<path fill="none" stroke="#000000" d="M130.2927,-114.3668C157.3914,-133.9046 204.3196,-164.3181 250.082,-177.631 353.7814,-207.7987 478.2735,-209.7026 563.0358,-206.1785"/>
<polygon fill="#000000" stroke="#000000" points="563.3387,-209.6686 573.1716,-205.7234 563.0247,-202.6756 563.3387,-209.6686"/>
</g>
<!-- ABDDiagPreconditioner&#45;&gt;GlobalLinearSystem -->
<g id="edge15" class="edge">
<title>ABDDiagPreconditioner-&gt;GlobalLinearSystem</title>
<path fill="none" stroke="#000000" d="M129.6924,-78.8278C156.605,-58.9131 203.7193,-27.8467 250.082,-15.631 369.6288,15.8671 515.1062,-7.3632 597.245,-25.8545"/>
<polygon fill="#000000" stroke="#000000" points="596.6558,-29.3103 607.1857,-28.1392 598.2238,-22.4881 596.6558,-29.3103"/>
</g>
<!-- AffinebodySurfaceReporter -->
<g id="node16" class="node">
<title>AffinebodySurfaceReporter</title>
<ellipse fill="none" stroke="#000000" cx="368.9103" cy="-350.631" rx="118.6414" ry="18"/>
<text text-anchor="middle" x="368.9103" y="-346.431" font-family="Times,serif" font-size="14.00" fill="#000000">AffinebodySurfaceReporter</text>
</g>
<!-- AffinebodySurfaceReporter&#45;&gt;GlobalSimpicialSurfaceManager -->
<g id="edge20" class="edge">
<title>AffinebodySurfaceReporter-&gt;GlobalSimpicialSurfaceManager</title>
<path fill="none" stroke="#000000" d="M488.0711,-350.631C496.4969,-350.631 505.0477,-350.631 513.6067,-350.631"/>
<polygon fill="#000000" stroke="#000000" points="513.6509,-354.1311 523.6509,-350.631 513.6509,-347.1311 513.6509,-354.1311"/>
</g>
<!-- AffinebodySurfaceReporter&#45;&gt;AffineBodyDynamics -->
<g id="edge19" class="edge">
<title>AffinebodySurfaceReporter-&gt;AffineBodyDynamics</title>
<path fill="none" stroke="#000000" d="M457.4552,-338.5145C468.1983,-334.7823 478.5914,-329.9309 487.7386,-323.631 511.4942,-307.2703 502.2211,-288.8403 523.7386,-269.631 548.2101,-247.7848 580.6193,-230.6678 607.8953,-218.7189"/>
<polygon fill="#000000" stroke="#000000" points="609.4797,-221.8484 617.3076,-214.7087 606.7359,-215.4085 609.4797,-221.8484"/>
</g>
<!-- AffineBodyVertexReporter -->
<g id="node17" class="node">
<title>AffineBodyVertexReporter</title>
<ellipse fill="none" stroke="#000000" cx="368.9103" cy="-242.631" rx="117.4354" ry="18"/>
<text text-anchor="middle" x="368.9103" y="-238.431" font-family="Times,serif" font-size="14.00" fill="#000000">AffineBodyVertexReporter</text>
</g>
<!-- AffineBodyVertexReporter&#45;&gt;GlobalVertexManager -->
<g id="edge22" class="edge">
<title>AffineBodyVertexReporter-&gt;GlobalVertexManager</title>
<path fill="none" stroke="#000000" d="M460.7641,-231.4003C550.8447,-224.2206 690.2562,-223.5277 800.0153,-269.631 855.7631,-293.0474 904.5215,-346.2438 930.3792,-378.4271"/>
<polygon fill="#000000" stroke="#000000" points="927.8135,-380.8261 936.7513,-386.5153 933.3121,-376.4942 927.8135,-380.8261"/>
</g>
<!-- AffineBodyVertexReporter&#45;&gt;AffineBodyDynamics -->
<g id="edge21" class="edge">
<title>AffineBodyVertexReporter-&gt;AffineBodyDynamics</title>
<path fill="none" stroke="#000000" d="M452.8628,-230.0224C491.5111,-224.2179 537.3088,-217.3397 576.1696,-211.5032"/>
<polygon fill="#000000" stroke="#000000" points="577.0422,-214.9115 586.4114,-209.965 576.0025,-207.9892 577.0422,-214.9115"/>
</g>
<!-- ABDOrthoPotential -->
<g id="node18" class="node">
<title>ABDOrthoPotential</title>
<ellipse fill="none" stroke="#000000" cx="368.9103" cy="-150.631" rx="88.0596" ry="18"/>
<text text-anchor="middle" x="368.9103" y="-146.431" font-family="Times,serif" font-size="14.00" fill="#000000">ABDOrthoPotential</text>
</g>
<!-- ABDOrthoPotential&#45;&gt;AffineBodyDynamics -->
<g id="edge23" class="edge">
<title>ABDOrthoPotential-&gt;AffineBodyDynamics</title>
<path fill="none" stroke="#000000" d="M437.9683,-161.9456C480.3534,-168.89 534.875,-177.8229 579.5051,-185.1351"/>
<polygon fill="#000000" stroke="#000000" points="579.0176,-188.6019 589.452,-186.7648 580.1495,-181.694 579.0176,-188.6019"/>
</g>
<!-- LinearPCG -->
<g id="node19" class="node">
<title>LinearPCG</title>
<ellipse fill="none" stroke="#000000" cx="368.9103" cy="-42.631" rx="55.0323" ry="18"/>
<text text-anchor="middle" x="368.9103" y="-38.431" font-family="Times,serif" font-size="14.00" fill="#000000">LinearPCG</text>
</g>
<!-- LinearPCG&#45;&gt;GlobalLinearSystem -->
<g id="edge24" class="edge">
<title>LinearPCG-&gt;GlobalLinearSystem</title>
<path fill="none" stroke="#000000" d="M424.0151,-42.631C462.3855,-42.631 514.6836,-42.631 560.4712,-42.631"/>
<polygon fill="#000000" stroke="#000000" points="560.7395,-46.1311 570.7394,-42.631 560.7394,-39.1311 560.7395,-46.1311"/>
</g>
<!-- ContactLineSearchReporter -->
<g id="node20" class="node">
<title>ContactLineSearchReporter</title>
<ellipse fill="none" stroke="#000000" cx="368.9103" cy="-404.631" rx="118.6568" ry="18"/>
<text text-anchor="middle" x="368.9103" y="-400.431" font-family="Times,serif" font-size="14.00" fill="#000000">ContactLineSearchReporter</text>
</g>
<!-- ContactLineSearchReporter&#45;&gt;GlobalContactManager -->
<g id="edge25" class="edge">
<title>ContactLineSearchReporter-&gt;GlobalContactManager</title>
<path fill="none" stroke="#000000" d="M488.0711,-404.631C508.5347,-404.631 529.7359,-404.631 549.9998,-404.631"/>
<polygon fill="#000000" stroke="#000000" points="550.1823,-408.1311 560.1823,-404.631 550.1823,-401.1311 550.1823,-408.1311"/>
</g>
<!-- ContactLineSearchReporter&#45;&gt;LineSearcher -->
<g id="edge26" class="edge">
<title>ContactLineSearchReporter-&gt;LineSearcher</title>
<path fill="none" stroke="#000000" d="M457.4552,-392.5145C468.1983,-388.7823 478.5914,-383.9309 487.7386,-377.631 511.4942,-361.2703 499.7371,-339.6288 523.7386,-323.631 542.9584,-310.8205 566.8178,-303.7891 589.2704,-300.0156"/>
<polygon fill="#000000" stroke="#000000" points="590.0881,-303.4327 599.4657,-298.5021 589.0601,-296.5085 590.0881,-303.4327"/>
</g>
</g>
</svg>