<?xml version="1.0" encoding="UTF-8" standalone="no"?><!DOCTYPE svg PUBLIC "-//W3C//DTD SVG 1.1//EN" "http://www.w3.org/Graphics/SVG/1.1/DTD/svg11.dtd"><!-- Generated by graphviz version 2.40.1 (20161225.0304)
 --><!-- Title: %0 Pages: 1 -->
<svg xmlns="http://www.w3.org/2000/svg" xmlns:xlink="http://www.w3.org/1999/xlink" width="661pt" height="460pt" viewBox="0.00 0.00 660.97 460.00" style="background-color: transparent;">
<g id="graph0" class="graph" transform="scale(1 1) rotate(0) translate(4 456)">
<title>%0</title>
<!-- GlobalCCDFilter -->
<g id="node1" class="node">
<title>GlobalCCDFilter</title>
<polygon fill="#d5e8d4" stroke="#82b366" points="399.3477,-416.0493 404.4528,-416.1479 409.5051,-416.2953 414.4839,-416.4913 419.3692,-416.7353 424.1413,-417.0266 428.7814,-417.3645 433.2714,-417.7479 437.5942,-418.1759 441.7339,-418.6472 445.6755,-419.1606 449.4053,-419.7147 452.9108,-420.308 456.181,-420.9388 459.2062,-421.6054 461.978,-422.3059 464.4897,-423.0385 466.7357,-423.8012 468.7123,-424.5918 470.4167,-425.4082 471.8481,-426.2481 473.0065,-427.1093 473.8937,-427.9894 474.5125,-428.886 474.867,-429.7965 474.9623,-430.7186 474.8049,-431.6497 474.4018,-432.5873 473.7612,-433.5287 472.8919,-434.4713 471.8035,-435.4127 470.506,-436.3503 469.01,-437.2814 467.3264,-438.2035 465.4663,-439.114 463.441,-440.0106 461.2618,-440.8907 458.9401,-441.7519 456.4868,-442.5918 453.9131,-443.4082 451.2294,-444.1988 448.4461,-444.9615 445.573,-445.6941 442.6195,-446.3946 439.5943,-447.0612 436.5058,-447.692 433.3618,-448.2853 430.1692,-448.8394 426.9348,-449.3528 423.6643,-449.8241 420.3634,-450.2521 417.0367,-450.6355 413.6886,-450.9734 410.323,-451.2647 406.9434,-451.5087 403.5528,-451.7047 400.1539,-451.8521 396.7494,-451.9507 393.3416,-452 389.9326,-452 386.5248,-451.9507 383.1203,-451.8521 379.7215,-451.7047 376.3308,-451.5087 372.9512,-451.2647 369.5856,-450.9734 366.2376,-450.6355 362.9109,-450.2521 359.6099,-449.8241 356.3395,-449.3528 353.105,-448.8394 349.9125,-448.2853 346.7684,-447.692 343.6799,-447.0612 340.6548,-446.3946 337.7012,-445.6941 334.8281,-444.9615 332.0448,-444.1988 329.3611,-443.4082 326.7874,-442.5918 324.3342,-441.7519 322.0124,-440.8907 319.8332,-440.0106 317.8079,-439.114 315.9478,-438.2035 314.2642,-437.2814 312.7682,-436.3503 311.4707,-435.4127 310.3823,-434.4713 309.5131,-433.5287 308.8724,-432.5873 308.4694,-431.6497 308.3119,-430.7186 308.4073,-429.7965 308.7617,-428.886 309.3805,-427.9894 310.2677,-427.1093 311.4262,-426.2481 312.8575,-425.4082 314.562,-424.5918 316.5385,-423.8012 318.7845,-423.0385 321.2962,-422.3059 324.068,-421.6054 327.0932,-420.9388 330.3634,-420.308 333.8689,-419.7147 337.5987,-419.1606 341.5403,-418.6472 345.68,-418.1759 350.0029,-417.7479 354.4929,-417.3645 359.1329,-417.0266 363.905,-416.7353 368.7903,-416.4913 373.7691,-416.2953 378.8214,-416.1479 383.9265,-416.0493 389.0634,-416 394.2109,-416 399.3477,-416.0493"/>
<text text-anchor="middle" x="391.6371" y="-429.8" font-family="Times,serif" font-size="14.00" fill="#000000">GlobalCCDFilter</text>
</g>
<!-- SimEngine -->
<g id="node10" class="node">
<title>SimEngine</title>
<polygon fill="#d5e8d4" stroke="#82b366" points="653.0784,-244 574.6346,-244 574.6346,-208 653.0784,-208 653.0784,-244"/>
<text text-anchor="middle" x="613.8565" y="-221.8" font-family="Times,serif" font-size="14.00" fill="#000000">SimEngine</text>
</g>
<!-- GlobalCCDFilter&#45;&gt;SimEngine -->
<g id="edge3" class="edge">
<title>GlobalCCDFilter-&gt;SimEngine</title>
<path fill="none" stroke="#f08e81" d="M474.0523,-433.1891C496.9875,-429.382 520.5665,-421.6853 538.7457,-407 585.5525,-369.1892 603.5348,-297.2339 610.1798,-256.3584"/>
<polygon fill="#f08e81" stroke="#f08e81" points="610.2127,-256.1339 607.1295,-249.6151 611.961,-244.2619 615.0442,-250.7806 610.2127,-256.1339"/>
</g>
<!-- GlobalDCDFilter -->
<g id="node2" class="node">
<title>GlobalDCDFilter</title>
<polygon fill="#d5e8d4" stroke="#82b366" points="399.4062,-362.0493 404.5499,-362.1479 409.6405,-362.2953 414.6571,-362.4913 419.5794,-362.7353 424.3877,-363.0266 429.0629,-363.3645 433.5869,-363.7479 437.9426,-364.1759 442.1136,-364.6472 446.0851,-365.1606 449.8431,-365.7147 453.3753,-366.308 456.6702,-366.9388 459.7183,-367.6054 462.5112,-368.3059 465.0418,-369.0385 467.3049,-369.8012 469.2964,-370.5918 471.0138,-371.4082 472.456,-372.2481 473.6232,-373.1093 474.5171,-373.9894 475.1406,-374.886 475.4978,-375.7965 475.5939,-376.7186 475.4352,-377.6497 475.0291,-378.5873 474.3836,-379.5287 473.5078,-380.4713 472.4111,-381.4127 471.1038,-382.3503 469.5964,-383.2814 467.9001,-384.2035 466.0259,-385.114 463.9852,-386.0106 461.7895,-386.8907 459.4502,-387.7519 456.9784,-388.5918 454.3851,-389.4082 451.6811,-390.1988 448.8767,-390.9615 445.9818,-391.6941 443.0059,-392.3946 439.9578,-393.0612 436.8459,-393.692 433.678,-394.2853 430.4613,-394.8394 427.2023,-395.3528 423.9071,-395.8241 420.5811,-396.2521 417.2292,-396.6355 413.8557,-396.9734 410.4647,-397.2647 407.0594,-397.5087 403.6431,-397.7047 400.2185,-397.8521 396.7882,-397.9507 393.3545,-398 389.9197,-398 386.486,-397.9507 383.0557,-397.8521 379.6311,-397.7047 376.2148,-397.5087 372.8096,-397.2647 369.4185,-396.9734 366.045,-396.6355 362.6931,-396.2521 359.3671,-395.8241 356.0719,-395.3528 352.813,-394.8394 349.5962,-394.2853 346.4283,-393.692 343.3164,-393.0612 340.2683,-392.3946 337.2924,-391.6941 334.3975,-390.9615 331.5931,-390.1988 328.8891,-389.4082 326.2959,-388.5918 323.8241,-387.7519 321.4847,-386.8907 319.289,-386.0106 317.2483,-385.114 315.3742,-384.2035 313.6778,-383.2814 312.1704,-382.3503 310.8631,-381.4127 309.7665,-380.4713 308.8906,-379.5287 308.2451,-378.5873 307.839,-377.6497 307.6803,-376.7186 307.7764,-375.7965 308.1336,-374.886 308.7571,-373.9894 309.651,-373.1093 310.8182,-372.2481 312.2604,-371.4082 313.9778,-370.5918 315.9693,-369.8012 318.2324,-369.0385 320.7631,-368.3059 323.5559,-367.6054 326.604,-366.9388 329.899,-366.308 333.4311,-365.7147 337.1891,-365.1606 341.1606,-364.6472 345.3317,-364.1759 349.6873,-363.7479 354.2113,-363.3645 358.8866,-363.0266 363.6948,-362.7353 368.6171,-362.4913 373.6337,-362.2953 378.7243,-362.1479 383.868,-362.0493 389.0439,-362 394.2304,-362 399.4062,-362.0493"/>
<text text-anchor="middle" x="391.6371" y="-375.8" font-family="Times,serif" font-size="14.00" fill="#000000">GlobalDCDFilter</text>
</g>
<!-- GlobalDCDFilter&#45;&gt;SimEngine -->
<g id="edge4" class="edge">
<title>GlobalDCDFilter-&gt;SimEngine</title>
<path fill="none" stroke="#f08e81" d="M475.4823,-377.0655C497.5563,-373.0998 520.3243,-365.8507 538.7457,-353 572.5705,-329.4039 593.5581,-285.2558 604.4768,-255.7391"/>
<polygon fill="#f08e81" stroke="#f08e81" points="604.5897,-255.4159 602.7926,-248.4323 608.5479,-244.0875 610.3449,-251.0711 604.5897,-255.4159"/>
</g>
<!-- GlobalContactManager -->
<g id="node3" class="node">
<title>GlobalContactManager</title>
<polygon fill="#d5e8d4" stroke="#82b366" points="401.6357,-308.0493 408.2556,-308.1479 414.8071,-308.2953 421.2633,-308.4913 427.5982,-308.7353 433.7864,-309.0266 439.8033,-309.3645 445.6256,-309.7479 451.2312,-310.1759 456.5993,-310.6472 461.7105,-311.1606 466.547,-311.7147 471.0928,-312.308 475.3333,-312.9388 479.2562,-313.6054 482.8505,-314.3059 486.1074,-315.0385 489.02,-315.8012 491.583,-316.5918 493.7932,-317.4082 495.6493,-318.2481 497.1515,-319.1093 498.3019,-319.9894 499.1043,-320.886 499.564,-321.7965 499.6877,-322.7186 499.4835,-323.6497 498.9608,-324.5873 498.1301,-325.5287 497.0029,-326.4713 495.5915,-327.4127 493.909,-328.3503 491.9691,-329.2814 489.7859,-330.2035 487.3738,-331.114 484.7476,-332.0106 481.9218,-332.8907 478.911,-333.7519 475.7299,-334.5918 472.3924,-335.4082 468.9124,-336.1988 465.3032,-336.9615 461.5776,-337.6941 457.7476,-338.3946 453.8248,-339.0612 449.8199,-339.692 445.7428,-340.2853 441.603,-340.8394 437.4087,-341.3528 433.1679,-341.8241 428.8874,-342.2521 424.5736,-342.6355 420.232,-342.9734 415.8677,-343.2647 411.4853,-343.5087 407.0885,-343.7047 402.6812,-343.8521 398.2664,-343.9507 393.8474,-344 389.4269,-344 385.0078,-343.9507 380.5931,-343.8521 376.1857,-343.7047 371.789,-343.5087 367.4065,-343.2647 363.0422,-342.9734 358.7007,-342.6355 354.3868,-342.2521 350.1063,-341.8241 345.8655,-341.3528 341.6713,-340.8394 337.5314,-340.2853 333.4544,-339.692 329.4494,-339.0612 325.5266,-338.3946 321.6966,-337.6941 317.971,-336.9615 314.3618,-336.1988 310.8818,-335.4082 307.5443,-334.5918 304.3632,-333.7519 301.3525,-332.8907 298.5267,-332.0106 295.9004,-331.114 293.4883,-330.2035 291.3051,-329.2814 289.3652,-328.3503 287.6828,-327.4127 286.2714,-326.4713 285.1442,-325.5287 284.3135,-324.5873 283.7908,-323.6497 283.5866,-322.7186 283.7102,-321.7965 284.1699,-320.886 284.9723,-319.9894 286.1227,-319.1093 287.6249,-318.2481 289.481,-317.4082 291.6912,-316.5918 294.2543,-315.8012 297.1668,-315.0385 300.4237,-314.3059 304.0181,-313.6054 307.9409,-312.9388 312.1815,-312.308 316.7272,-311.7147 321.5637,-311.1606 326.6749,-310.6472 332.043,-310.1759 337.6486,-309.7479 343.4709,-309.3645 349.4879,-309.0266 355.676,-308.7353 362.0109,-308.4913 368.4671,-308.2953 375.0186,-308.1479 381.6385,-308.0493 388.2996,-308 394.9746,-308 401.6357,-308.0493"/>
<text text-anchor="middle" x="391.6371" y="-321.8" font-family="Times,serif" font-size="14.00" fill="#000000">GlobalContactManager</text>
</g>
<!-- GlobalContactManager&#45;&gt;SimEngine -->
<g id="edge5" class="edge">
<title>GlobalContactManager-&gt;SimEngine</title>
<path fill="none" stroke="#f08e81" d="M490.45,-316.1699C507.1395,-312.2032 523.8618,-306.6795 538.7457,-299 559.89,-288.0904 579.0416,-269.2629 592.7138,-253.4612"/>
<polygon fill="#f08e81" stroke="#f08e81" points="592.8157,-253.3386 593.5758,-246.1677 600.4875,-244.1112 599.7274,-251.2822 592.8157,-253.3386"/>
</g>
<!-- GlobalVertexManager -->
<g id="node4" class="node">
<title>GlobalVertexManager</title>
<polygon fill="#d5e8d4" stroke="#82b366" points="113.8907,-254.0493 120.2643,-254.1479 126.5719,-254.2953 132.7879,-254.4913 138.887,-254.7353 144.8448,-255.0266 150.6378,-255.3645 156.2434,-255.7479 161.6404,-256.1759 166.8087,-256.6472 171.7296,-257.1606 176.3861,-257.7147 180.7627,-258.308 184.8454,-258.9388 188.6223,-259.6054 192.0828,-260.3059 195.2185,-261.0385 198.0227,-261.8012 200.4903,-262.5918 202.6183,-263.4082 204.4052,-264.2481 205.8515,-265.1093 206.9592,-265.9894 207.7317,-266.886 208.1743,-267.7965 208.2933,-268.7186 208.0967,-269.6497 207.5935,-270.5873 206.7937,-271.5287 205.7084,-272.4713 204.3496,-273.4127 202.7297,-274.3503 200.862,-275.2814 198.7601,-276.2035 196.4378,-277.114 193.9093,-278.0106 191.1886,-278.8907 188.29,-279.7519 185.2272,-280.5918 182.014,-281.4082 178.6635,-282.1988 175.1886,-282.9615 171.6016,-283.6941 167.9142,-284.3946 164.1374,-285.0612 160.2815,-285.692 156.3562,-286.2853 152.3705,-286.8394 148.3323,-287.3528 144.2493,-287.8241 140.1281,-288.2521 135.9749,-288.6355 131.7949,-288.9734 127.5931,-289.2647 123.3737,-289.5087 119.1406,-289.7047 114.8973,-289.8521 110.6469,-289.9507 106.3923,-290 102.1363,-290 97.8817,-289.9507 93.6312,-289.8521 89.3879,-289.7047 85.1548,-289.5087 80.9355,-289.2647 76.7336,-288.9734 72.5537,-288.6355 68.4004,-288.2521 64.2792,-287.8241 60.1962,-287.3528 56.1581,-286.8394 52.1723,-286.2853 48.247,-285.692 44.3911,-285.0612 40.6143,-284.3946 36.9269,-283.6941 33.3399,-282.9615 29.865,-282.1988 26.5146,-281.4082 23.3013,-280.5918 20.2385,-279.7519 17.3399,-278.8907 14.6192,-278.0106 12.0907,-277.114 9.7684,-276.2035 7.6665,-275.2814 5.7988,-274.3503 4.1789,-273.4127 2.8201,-272.4713 1.7348,-271.5287 .935,-270.5873 .4318,-269.6497 .2352,-268.7186 .3543,-267.7965 .7968,-266.886 1.5694,-265.9894 2.677,-265.1093 4.1233,-264.2481 5.9102,-263.4082 8.0382,-262.5918 10.5059,-261.8012 13.31,-261.0385 16.4457,-260.3059 19.9063,-259.6054 23.6831,-258.9388 27.7658,-258.308 32.1424,-257.7147 36.7989,-257.1606 41.7199,-256.6472 46.8881,-256.1759 52.2851,-255.7479 57.8908,-255.3645 63.6838,-255.0266 69.6416,-254.7353 75.7407,-254.4913 81.9566,-254.2953 88.2643,-254.1479 94.6378,-254.0493 101.051,-254 107.4775,-254 113.8907,-254.0493"/>
<text text-anchor="middle" x="104.2643" y="-267.8" font-family="Times,serif" font-size="14.00" fill="#000000">GlobalVertexManager</text>
</g>
<!-- GlobalVertexManager&#45;&gt;GlobalContactManager -->
<g id="edge1" class="edge">
<title>GlobalVertexManager-&gt;GlobalContactManager</title>
<path fill="none" stroke="#f08e81" d="M168.1325,-284.415C192.085,-289.0392 219.5478,-294.3033 244.5285,-299 263.2482,-302.5195 283.3187,-306.239 302.4287,-309.7548"/>
<polygon fill="#f08e81" stroke="#f08e81" points="302.6995,-309.8044 309.3234,-306.9543 314.502,-311.9725 307.878,-314.8227 302.6995,-309.8044"/>
</g>
<!-- GlobalSimpicialSurfaceManager -->
<g id="node7" class="node">
<title>GlobalSimpicialSurfaceManager</title>
<polygon fill="#d5e8d4" stroke="#82b366" points="405.2601,-254.0493 414.2796,-254.1479 423.2059,-254.2953 432.0024,-254.4913 440.6336,-254.7353 449.0648,-255.0266 457.2628,-255.3645 465.1957,-255.7479 472.8332,-256.1759 480.1471,-256.6472 487.1111,-257.1606 493.7007,-257.7147 499.8943,-258.308 505.672,-258.9388 511.0168,-259.6054 515.914,-260.3059 520.3515,-261.0385 524.3198,-261.8012 527.8119,-262.5918 530.8233,-263.4082 533.3521,-264.2481 535.3989,-265.1093 536.9663,-265.9894 538.0596,-266.886 538.6859,-267.7965 538.8544,-268.7186 538.5762,-269.6497 537.864,-270.5873 536.7322,-271.5287 535.1964,-272.4713 533.2734,-273.4127 530.981,-274.3503 528.3379,-275.2814 525.3634,-276.2035 522.077,-277.114 518.4987,-278.0106 514.6486,-278.8907 510.5465,-279.7519 506.2123,-280.5918 501.665,-281.4082 496.9236,-282.1988 492.0061,-282.9615 486.93,-283.6941 481.7117,-284.3946 476.3669,-285.0612 470.9102,-285.692 465.3553,-286.2853 459.7148,-286.8394 454.0003,-287.3528 448.2222,-287.8241 442.3901,-288.2521 436.5125,-288.6355 430.5972,-288.9734 424.651,-289.2647 418.6799,-289.5087 412.6895,-289.7047 406.6845,-289.8521 400.6695,-289.9507 394.6485,-290 388.6257,-290 382.6048,-289.9507 376.5897,-289.8521 370.5848,-289.7047 364.5943,-289.5087 358.6232,-289.2647 352.677,-288.9734 346.7617,-288.6355 340.8842,-288.2521 335.0521,-287.8241 329.274,-287.3528 323.5594,-286.8394 317.9189,-286.2853 312.364,-285.692 306.9073,-285.0612 301.5625,-284.3946 296.3443,-283.6941 291.2681,-282.9615 286.3506,-282.1988 281.6092,-281.4082 277.062,-280.5918 272.7277,-279.7519 268.6256,-278.8907 264.7755,-278.0106 261.1972,-277.114 257.9109,-276.2035 254.9363,-275.2814 252.2932,-274.3503 250.0008,-273.4127 248.0779,-272.4713 246.542,-271.5287 245.4102,-270.5873 244.6981,-269.6497 244.4199,-268.7186 244.5884,-267.7965 245.2146,-266.886 246.3079,-265.9894 247.8753,-265.1093 249.9221,-264.2481 252.4509,-263.4082 255.4624,-262.5918 258.9544,-261.8012 262.9227,-261.0385 267.3602,-260.3059 272.2574,-259.6054 277.6022,-258.9388 283.38,-258.308 289.5735,-257.7147 296.1632,-257.1606 303.1271,-256.6472 310.441,-256.1759 318.0786,-255.7479 326.0114,-255.3645 334.2094,-255.0266 342.6406,-254.7353 351.2718,-254.4913 360.0683,-254.2953 368.9946,-254.1479 378.0141,-254.0493 387.0899,-254 396.1844,-254 405.2601,-254.0493"/>
<text text-anchor="middle" x="391.6371" y="-267.8" font-family="Times,serif" font-size="14.00" fill="#000000">GlobalSimpicialSurfaceManager</text>
</g>
<!-- GlobalVertexManager&#45;&gt;GlobalSimpicialSurfaceManager -->
<g id="edge2" class="edge">
<title>GlobalVertexManager-&gt;GlobalSimpicialSurfaceManager</title>
<path fill="none" stroke="#f08e81" d="M206.3903,-272C215.6918,-272 225.2475,-272 234.8823,-272"/>
<polygon fill="#f08e81" stroke="#f08e81" points="235.1154,-272.0001 241.1153,-268 247.1154,-272 241.1154,-276 235.1154,-272.0001"/>
</g>
<!-- GlobalVertexManager&#45;&gt;SimEngine -->
<g id="edge9" class="edge">
<title>GlobalVertexManager-&gt;SimEngine</title>
<path fill="none" stroke="#f08e81" d="M171.3859,-257.1164C194.461,-252.5239 220.5262,-247.9133 244.5285,-245 357.4158,-231.2984 490.8846,-227.4612 562.4203,-226.3974"/>
<polygon fill="#f08e81" stroke="#f08e81" points="562.619,-226.3949 568.565,-222.3149 574.618,-226.2343 568.672,-230.3142 562.619,-226.3949"/>
</g>
<!-- GlobalLinearSystem -->
<g id="node5" class="node">
<title>GlobalLinearSystem</title>
<polygon fill="#d5e8d4" stroke="#82b366" points="400.5872,-162.0493 406.5129,-162.1479 412.3774,-162.2953 418.1566,-162.4913 423.8271,-162.7353 429.3663,-163.0266 434.7523,-163.3645 439.9641,-163.7479 444.9818,-164.1759 449.787,-164.6472 454.3622,-165.1606 458.6915,-165.7147 462.7606,-166.308 466.5565,-166.9388 470.0679,-167.6054 473.2853,-168.3059 476.2007,-169.0385 478.8078,-169.8012 481.1021,-170.5918 483.0805,-171.4082 484.7419,-172.2481 486.0866,-173.1093 487.1164,-173.9894 487.8347,-174.886 488.2461,-175.7965 488.3568,-176.7186 488.174,-177.6497 487.7062,-178.5873 486.9626,-179.5287 485.9536,-180.4713 484.6902,-181.4127 483.1842,-182.3503 481.4477,-183.2814 479.4934,-184.2035 477.3343,-185.114 474.9835,-186.0106 472.454,-186.8907 469.759,-187.7519 466.9114,-188.5918 463.9239,-189.4082 460.8089,-190.1988 457.5782,-190.9615 454.2432,-191.6941 450.8149,-192.3946 447.3034,-193.0612 443.7185,-193.692 440.069,-194.2853 436.3632,-194.8394 432.6088,-195.3528 428.8127,-195.8241 424.9811,-196.2521 421.1196,-196.6355 417.2334,-196.9734 413.3268,-197.2647 409.4039,-197.5087 405.4682,-197.7047 401.523,-197.8521 397.5712,-197.9507 393.6156,-198 389.6586,-198 385.703,-197.9507 381.7512,-197.8521 377.806,-197.7047 373.8704,-197.5087 369.9474,-197.2647 366.0409,-196.9734 362.1546,-196.6355 358.2931,-196.2521 354.4615,-195.8241 350.6654,-195.3528 346.911,-194.8394 343.2052,-194.2853 339.5558,-193.692 335.9708,-193.0612 332.4594,-192.3946 329.031,-191.6941 325.6961,-190.9615 322.4653,-190.1988 319.3503,-189.4082 316.3628,-188.5918 313.5152,-187.7519 310.8203,-186.8907 308.2908,-186.0106 305.9399,-185.114 303.7808,-184.2035 301.8265,-183.2814 300.0901,-182.3503 298.584,-181.4127 297.3206,-180.4713 296.3116,-179.5287 295.5681,-178.5873 295.1002,-177.6497 294.9174,-176.7186 295.0281,-175.7965 295.4396,-174.886 296.1578,-173.9894 297.1876,-173.1093 298.5323,-172.2481 300.1937,-171.4082 302.1722,-170.5918 304.4664,-169.8012 307.0735,-169.0385 309.9889,-168.3059 313.2063,-167.6054 316.7178,-166.9388 320.5137,-166.308 324.5827,-165.7147 328.912,-165.1606 333.4872,-164.6472 338.2924,-164.1759 343.3102,-163.7479 348.5219,-163.3645 353.9079,-163.0266 359.4471,-162.7353 365.1177,-162.4913 370.8969,-162.2953 376.7613,-162.1479 382.687,-162.0493 388.6496,-162 394.6246,-162 400.5872,-162.0493"/>
<text text-anchor="middle" x="391.6371" y="-175.8" font-family="Times,serif" font-size="14.00" fill="#000000">GlobalLinearSystem</text>
</g>
<!-- GlobalLinearSystem&#45;&gt;SimEngine -->
<g id="edge6" class="edge">
<title>GlobalLinearSystem-&gt;SimEngine</title>
<path fill="none" stroke="#f08e81" d="M451.1878,-192.3272C485.9962,-199.5326 529.479,-208.5336 562.7283,-215.4163"/>
<polygon fill="#f08e81" stroke="#f08e81" points="562.7292,-215.4164 569.4155,-212.7157 574.4801,-217.849 567.7938,-220.5497 562.7292,-215.4164"/>
</g>
<!-- LineSearcher -->
<g id="node6" class="node">
<title>LineSearcher</title>
<polygon fill="#d5e8d4" stroke="#82b366" points="397.8032,-108.0493 401.8857,-108.1479 405.9259,-108.2953 409.9075,-108.4913 413.8142,-108.7353 417.6304,-109.0266 421.341,-109.3645 424.9316,-109.7479 428.3885,-110.1759 431.699,-110.6472 434.851,-111.1606 437.8337,-111.7147 440.637,-112.308 443.2522,-112.9388 445.6714,-113.6054 447.888,-114.3059 449.8965,-115.0385 451.6927,-115.8012 453.2733,-116.5918 454.6363,-117.4082 455.7809,-118.2481 456.7073,-119.1093 457.4168,-119.9894 457.9116,-120.886 458.1951,-121.7965 458.2714,-122.7186 458.1455,-123.6497 457.8231,-124.5873 457.3108,-125.5287 456.6157,-126.4713 455.7453,-127.4127 454.7077,-128.3503 453.5114,-129.2814 452.165,-130.2035 450.6775,-131.114 449.0579,-132.0106 447.3152,-132.8907 445.4585,-133.7519 443.4967,-134.5918 441.4385,-135.4082 439.2924,-136.1988 437.0667,-136.9615 434.7691,-137.6941 432.4071,-138.3946 429.988,-139.0612 427.5181,-139.692 425.0039,-140.2853 422.4508,-140.8394 419.8643,-141.3528 417.2489,-141.8241 414.6092,-142.2521 411.9489,-142.6355 409.2714,-142.9734 406.58,-143.2647 403.8774,-143.5087 401.1659,-143.7047 398.4479,-143.8521 395.7254,-143.9507 393.0002,-144 390.2741,-144 387.5488,-143.9507 384.8263,-143.8521 382.1083,-143.7047 379.3968,-143.5087 376.6942,-143.2647 374.0028,-142.9734 371.3254,-142.6355 368.665,-142.2521 366.0253,-141.8241 363.41,-141.3528 360.8234,-140.8394 358.2704,-140.2853 355.7561,-139.692 353.2863,-139.0612 350.8671,-138.3946 348.5052,-137.6941 346.2076,-136.9615 343.9818,-136.1988 341.8357,-135.4082 339.7775,-134.5918 337.8157,-133.7519 335.959,-132.8907 334.2163,-132.0106 332.5967,-131.114 331.1092,-130.2035 329.7628,-129.2814 328.5665,-128.3503 327.5289,-127.4127 326.6585,-126.4713 325.9634,-125.5287 325.4511,-124.5873 325.1288,-123.6497 325.0028,-122.7186 325.0791,-121.7965 325.3626,-120.886 325.8574,-119.9894 326.5669,-119.1093 327.4933,-118.2481 328.6379,-117.4082 330.001,-116.5918 331.5816,-115.8012 333.3777,-115.0385 335.3862,-114.3059 337.6028,-113.6054 340.022,-112.9388 342.6372,-112.308 345.4405,-111.7147 348.4232,-111.1606 351.5752,-110.6472 354.8857,-110.1759 358.3426,-109.7479 361.9333,-109.3645 365.6439,-109.0266 369.4601,-108.7353 373.3668,-108.4913 377.3483,-108.2953 381.3885,-108.1479 385.471,-108.0493 389.5789,-108 393.6953,-108 397.8032,-108.0493"/>
<text text-anchor="middle" x="391.6371" y="-121.8" font-family="Times,serif" font-size="14.00" fill="#000000">LineSearcher</text>
</g>
<!-- LineSearcher&#45;&gt;SimEngine -->
<g id="edge7" class="edge">
<title>LineSearcher-&gt;SimEngine</title>
<path fill="none" stroke="#f08e81" d="M453.6528,-129.2682C480.9518,-132.7088 512.6701,-139.5461 538.7457,-153 559.89,-163.9096 579.0416,-182.7371 592.7138,-198.5388"/>
<polygon fill="#f08e81" stroke="#f08e81" points="592.8157,-198.6614 599.7274,-200.7178 600.4875,-207.8888 593.5758,-205.8323 592.8157,-198.6614"/>
</g>
<!-- GlobalSimpicialSurfaceManager&#45;&gt;SimEngine -->
<g id="edge8" class="edge">
<title>GlobalSimpicialSurfaceManager-&gt;SimEngine</title>
<path fill="none" stroke="#f08e81" d="M469.3587,-255.9114C500.3219,-249.502 535.0988,-242.303 562.775,-236.574"/>
<polygon fill="#f08e81" stroke="#f08e81" points="562.809,-236.567 567.8736,-231.4338 574.5599,-234.1345 569.4953,-239.2677 562.809,-236.567"/>
</g>
<!-- DoFPredictor -->
<g id="node8" class="node">
<title>DoFPredictor</title>
<polygon fill="#d5e8d4" stroke="#82b366" points="397.926,-54.0493 402.0898,-54.1479 406.2105,-54.2953 410.2713,-54.4913 414.2558,-54.7353 418.148,-55.0266 421.9325,-55.3645 425.5946,-55.7479 429.1204,-56.1759 432.4968,-56.6472 435.7116,-57.1606 438.7537,-57.7147 441.6128,-58.308 444.2801,-58.9388 446.7474,-59.6054 449.0082,-60.3059 451.0567,-61.0385 452.8886,-61.8012 454.5007,-62.5918 455.8909,-63.4082 457.0583,-64.2481 458.0032,-65.1093 458.7268,-65.9894 459.2314,-66.886 459.5206,-67.7965 459.5983,-68.7186 459.4699,-69.6497 459.1412,-70.5873 458.6187,-71.5287 457.9097,-72.4713 457.0219,-73.4127 455.9637,-74.3503 454.7436,-75.2814 453.3704,-76.2035 451.8533,-77.114 450.2014,-78.0106 448.424,-78.8907 446.5304,-79.7519 444.5295,-80.5918 442.4303,-81.4082 440.2415,-82.1988 437.9714,-82.9615 435.628,-83.6941 433.219,-84.3946 430.7517,-85.0612 428.2327,-85.692 425.6683,-86.2853 423.0644,-86.8394 420.4264,-87.3528 417.759,-87.8241 415.0667,-88.2521 412.3534,-88.6355 409.6226,-88.9734 406.8776,-89.2647 404.1211,-89.5087 401.3557,-89.7047 398.5836,-89.8521 395.8068,-89.9507 393.0273,-90 390.2469,-90 387.4674,-89.9507 384.6907,-89.8521 381.9185,-89.7047 379.1531,-89.5087 376.3966,-89.2647 373.6516,-88.9734 370.9209,-88.6355 368.2076,-88.2521 365.5152,-87.8241 362.8478,-87.3528 360.2098,-86.8394 357.6059,-86.2853 355.0415,-85.692 352.5225,-85.0612 350.0552,-84.3946 347.6462,-83.6941 345.3029,-82.9615 343.0328,-82.1988 340.8439,-81.4082 338.7448,-80.5918 336.7439,-79.7519 334.8502,-78.8907 333.0728,-78.0106 331.421,-77.114 329.9039,-76.2035 328.5307,-75.2814 327.3105,-74.3503 326.2523,-73.4127 325.3646,-72.4713 324.6556,-71.5287 324.1331,-70.5873 323.8043,-69.6497 323.6759,-68.7186 323.7537,-67.7965 324.0428,-66.886 324.5475,-65.9894 325.2711,-65.1093 326.2159,-64.2481 327.3833,-63.4082 328.7735,-62.5918 330.3856,-61.8012 332.2175,-61.0385 334.2661,-60.3059 336.5268,-59.6054 338.9942,-58.9388 341.6614,-58.308 344.5206,-57.7147 347.5626,-57.1606 350.7774,-56.6472 354.1538,-56.1759 357.6796,-55.7479 361.3417,-55.3645 365.1262,-55.0266 369.0184,-54.7353 373.0029,-54.4913 377.0637,-54.2953 381.1845,-54.1479 385.3482,-54.0493 389.5379,-54 393.7363,-54 397.926,-54.0493"/>
<text text-anchor="middle" x="391.6371" y="-67.8" font-family="Times,serif" font-size="14.00" fill="#000000">DoFPredictor</text>
</g>
<!-- DoFPredictor&#45;&gt;SimEngine -->
<g id="edge10" class="edge">
<title>DoFPredictor-&gt;SimEngine</title>
<path fill="none" stroke="#f08e81" d="M458.1161,-72.424C485.1412,-75.4413 515.4261,-82.7323 538.7457,-99 572.5705,-122.5961 593.5581,-166.7442 604.4768,-196.2609"/>
<polygon fill="#f08e81" stroke="#f08e81" points="604.5897,-196.5841 610.3449,-200.9289 608.5479,-207.9125 602.7926,-203.5677 604.5897,-196.5841"/>
</g>
<!-- GradientHessianComputer -->
<g id="node9" class="node">
<title>GradientHessianComputer</title>
<polygon fill="#d5e8d4" stroke="#82b366" points="402.8646,-.0493 410.2981,-.1479 417.6547,-.2953 424.9044,-.4913 432.0179,-.7353 438.9665,-1.0266 445.7229,-1.3645 452.2608,-1.7479 458.5554,-2.1759 464.5832,-2.6472 470.3225,-3.1606 475.7535,-3.7147 480.8579,-4.308 485.6196,-4.9388 490.0246,-5.6054 494.0606,-6.3059 497.7178,-7.0385 500.9883,-7.8012 503.8663,-8.5918 506.3482,-9.4082 508.4324,-10.2481 510.1192,-11.1093 511.411,-11.9894 512.3121,-12.886 512.8282,-13.7965 512.9671,-14.7186 512.7378,-15.6497 512.1509,-16.5873 511.2181,-17.5287 509.9523,-18.4713 508.3675,-19.4127 506.4782,-20.3503 504.2999,-21.2814 501.8484,-22.2035 499.1399,-23.114 496.1909,-24.0106 493.0178,-24.8907 489.637,-25.7519 486.0649,-26.5918 482.3172,-27.4082 478.4096,-28.1988 474.3568,-28.9615 470.1733,-29.6941 465.8726,-30.3946 461.4677,-31.0612 456.9705,-31.692 452.3924,-32.2853 447.7438,-32.8394 443.0341,-33.3528 438.272,-33.8241 433.4655,-34.2521 428.6214,-34.6355 423.7463,-34.9734 418.8457,-35.2647 413.9246,-35.5087 408.9875,-35.7047 404.0385,-35.8521 399.0812,-35.9507 394.119,-36 389.1552,-36 384.193,-35.9507 379.2357,-35.8521 374.2867,-35.7047 369.3496,-35.5087 364.4285,-35.2647 359.5279,-34.9734 354.6528,-34.6355 349.8088,-34.2521 345.0022,-33.8241 340.2402,-33.3528 335.5305,-32.8394 330.8818,-32.2853 326.3037,-31.692 321.8066,-31.0612 317.4016,-30.3946 313.101,-29.6941 308.9174,-28.9615 304.8647,-28.1988 300.957,-27.4082 297.2093,-26.5918 293.6372,-25.7519 290.2565,-24.8907 287.0834,-24.0106 284.1343,-23.114 281.4258,-22.2035 278.9743,-21.2814 276.796,-20.3503 274.9068,-19.4127 273.3219,-18.4713 272.0562,-17.5287 271.1234,-16.5873 270.5364,-15.6497 270.3072,-14.7186 270.446,-13.7965 270.9622,-12.886 271.8632,-11.9894 273.155,-11.1093 274.8418,-10.2481 276.926,-9.4082 279.4079,-8.5918 282.2859,-7.8012 285.5564,-7.0385 289.2136,-6.3059 293.2497,-5.6054 297.6546,-4.9388 302.4164,-4.308 307.5208,-3.7147 312.9517,-3.1606 318.6911,-2.6472 324.7189,-2.1759 331.0134,-1.7479 337.5513,-1.3645 344.3077,-1.0266 351.2564,-.7353 358.3698,-.4913 365.6195,-.2953 372.9762,-.1479 380.4097,-.0493 387.8895,0 395.3848,0 402.8646,-.0493"/>
<text text-anchor="middle" x="391.6371" y="-13.8" font-family="Times,serif" font-size="14.00" fill="#000000">GradientHessianComputer</text>
</g>
<!-- GradientHessianComputer&#45;&gt;SimEngine -->
<g id="edge11" class="edge">
<title>GradientHessianComputer-&gt;SimEngine</title>
<path fill="none" stroke="#f08e81" d="M496.5999,-23.9174C511.8647,-28.4145 526.5252,-35.1282 538.7457,-45 585.5525,-82.8108 603.5348,-154.7661 610.1798,-195.6416"/>
<polygon fill="#f08e81" stroke="#f08e81" points="610.2127,-195.8661 615.0442,-201.2194 611.961,-207.7381 607.1295,-202.3849 610.2127,-195.8661"/>
</g>
</g>
</svg>